<svg id="Layer_1" data-name="Layer 1" xmlns="http://www.w3.org/2000/svg" viewBox="0 0 435.26 61.73"><defs><style>.cls-1{font-size:16px;}.cls-1,.cls-16{fill:#bb0e3d;}.cls-1,.cls-7{font-family:Montserrat-Bold, Montserrat;font-weight:700;}.cls-2{letter-spacing:-0.03em;}.cls-3{letter-spacing:-0.01em;}.cls-4{letter-spacing:-0.01em;}.cls-5{letter-spacing:-0.01em;}.cls-6{letter-spacing:0em;}.cls-7{font-size:20px;}.cls-15,.cls-7{fill:#606060;}.cls-8{letter-spacing:0.01em;}.cls-9{letter-spacing:-0.02em;}.cls-10{letter-spacing:-0.01em;}.cls-11{letter-spacing:0em;}.cls-12{letter-spacing:-0.02em;}.cls-13{letter-spacing:-0.01em;}.cls-14{letter-spacing:-0.02em;}.cls-17{fill:#fff;}</style></defs><title>bridgLogo</title><text class="cls-1" transform="translate(98.63 13.6)">N<tspan class="cls-2" x="12.93" y="0">A</tspan><tspan x="24.62" y="0">TIONAL </tspan><tspan class="cls-3" x="92.64" y="0">C</tspan><tspan x="104.14" y="0">ANCER IN</tspan><tspan class="cls-4" x="186.25" y="0">S</tspan><tspan x="196.3" y="0">TI</tspan><tspan class="cls-5" x="211.44" y="0">TU</tspan><tspan class="cls-6" x="233.55" y="0">TE</tspan></text><text class="cls-7" transform="translate(98.17 35.41)">Bio<tspan class="cls-8" x="34.42" y="0">m</tspan><tspan x="55.52" y="0">edical Res</tspan><tspan class="cls-9" x="161.78" y="0">e</tspan><tspan x="174.1" y="0">a</tspan><tspan class="cls-10" x="186.44" y="0">r</tspan><tspan class="cls-11" x="194.88" y="0">c</tspan><tspan x="206.62" y="0">h In</tspan><tspan class="cls-12" x="246.48" y="0">t</tspan><tspan x="254.84" y="0">eg</tspan><tspan class="cls-13" x="281.46" y="0">r</tspan><tspan x="289.94" y="0">a</tspan><tspan class="cls-14" x="302.28" y="0">t</tspan><tspan x="310.64" y="0">ed</tspan><tspan x="0" y="21">Domain G</tspan><tspan class="cls-10" x="103.86" y="21">r</tspan><tspan x="112.3" y="21">oup (BRIDG)</tspan></text><path class="cls-15" d="M75,27,60,0H5.77A5.78,5.78,0,0,0,0,5.79V48.21A5.78,5.78,0,0,0,5.77,54H60Z" transform="translate(0 2.41)"/><path class="cls-16" d="M73.5,2.81a5.86,5.86,0,0,0-5-2.81H64L79.2,27,64,54h4.49a5.86,5.86,0,0,0,5-2.81L87,27Z" transform="translate(0 2.41)"/><rect class="cls-17" x="32" y="17.41" width="4" height="24"/><polygon class="cls-17" points="24 17.41 24 35.01 13 17.41 9 17.41 9 41.41 13 41.41 13 23.8 24 41.41 28 41.41 28 17.41 24 17.41"/><polygon class="cls-17" points="55 17.41 55 27.41 44 27.41 44 17.41 40 17.41 40 41.41 44 41.41 44 31.41 55 31.41 55 41.41 59 41.41 59 17.41 55 17.41"/></svg>