<?xml version="1.0" encoding="utf-8"?>
<!-- Generator: Adobe Illustrator 23.0.6, SVG Export Plug-In . SVG Version: 6.00 Build 0)  -->
<svg version="1.1" id="Layer_1" xmlns="http://www.w3.org/2000/svg" xmlns:xlink="http://www.w3.org/1999/xlink" x="0px" y="0px"
	 viewBox="0 0 443 65" style="enable-background:new 0 0 443 65;" xml:space="preserve">
<style type="text/css">
	.st0{fill:#BB0E3D;}
	.st1{fill:#606060;}
	.st2{fill:#FFFFFF;}
</style>
<g>
	<g>
		<path class="st0" d="M115.23,4.99v11.2h-2.13l-5.59-6.8v6.8h-2.56V4.99h2.15l5.57,6.8v-6.8H115.23z"/>
		<path class="st0" d="M125.26,13.79h-5.2l-0.99,2.4h-2.66l4.99-11.2h2.56l5.01,11.2h-2.72L125.26,13.79z M124.44,11.82l-1.78-4.29
			l-1.78,4.29H124.44z"/>
		<path class="st0" d="M131.9,7.1h-3.59V4.99h9.76V7.1h-3.59v9.09h-2.59V7.1z"/>
		<path class="st0" d="M139.47,4.99h2.59v11.2h-2.59V4.99z"/>
		<path class="st0" d="M144.01,10.59c0-3.33,2.59-5.79,6.13-5.79c3.52,0,6.13,2.45,6.13,5.79c0,3.35-2.61,5.79-6.13,5.79
			C146.6,16.39,144.01,13.92,144.01,10.59z M153.65,10.59c0-2.13-1.5-3.58-3.51-3.58c-2,0-3.51,1.46-3.51,3.58s1.5,3.59,3.51,3.59
			C152.14,14.18,153.65,12.72,153.65,10.59z"/>
		<path class="st0" d="M168.49,4.99v11.2h-2.13l-5.59-6.8v6.8h-2.56V4.99h2.15l5.57,6.8v-6.8H168.49z"/>
		<path class="st0" d="M178.52,13.79h-5.2l-0.99,2.4h-2.66l4.99-11.2h2.56l5.01,11.2h-2.72L178.52,13.79z M177.71,11.82l-1.78-4.29
			l-1.78,4.29H177.71z"/>
		<path class="st0" d="M183.4,4.99h2.59v9.09h5.62v2.11h-8.21V4.99z"/>
		<path class="st0" d="M196.89,10.59c0-3.38,2.59-5.79,6.08-5.79c1.94,0,3.55,0.7,4.61,1.98l-1.66,1.54
			c-0.75-0.86-1.7-1.31-2.82-1.31c-2.1,0-3.59,1.47-3.59,3.58c0,2.11,1.49,3.59,3.59,3.59c1.12,0,2.06-0.45,2.82-1.33l1.66,1.54
			c-1.06,1.3-2.67,2-4.63,2C199.48,16.39,196.89,13.97,196.89,10.59z"/>
		<path class="st0" d="M216.48,13.79h-5.2l-0.99,2.4h-2.66l4.99-11.2h2.56l5.01,11.2h-2.72L216.48,13.79z M215.66,11.82l-1.78-4.29
			l-1.78,4.29H215.66z"/>
		<path class="st0" d="M231.63,4.99v11.2h-2.13l-5.59-6.8v6.8h-2.56V4.99h2.15l5.57,6.8v-6.8H231.63z"/>
		<path class="st0" d="M233.58,10.59c0-3.38,2.59-5.79,6.08-5.79c1.94,0,3.55,0.7,4.61,1.98l-1.67,1.54
			c-0.75-0.86-1.7-1.31-2.82-1.31c-2.1,0-3.59,1.47-3.59,3.58c0,2.11,1.49,3.59,3.59,3.59c1.12,0,2.06-0.45,2.82-1.33l1.67,1.54
			c-1.06,1.3-2.67,2-4.63,2C236.17,16.39,233.58,13.97,233.58,10.59z"/>
		<path class="st0" d="M254.68,14.11v2.08h-8.68V4.99h8.47v2.08h-5.89V9.5h5.2v2.02h-5.2v2.59H254.68z"/>
		<path class="st0" d="M263.88,16.19l-2.16-3.12h-0.13h-2.26v3.12h-2.59V4.99h4.85c2.99,0,4.87,1.55,4.87,4.07
			c0,1.68-0.85,2.91-2.3,3.54l2.51,3.6H263.88z M261.45,7.1h-2.11v3.91h2.11c1.58,0,2.38-0.74,2.38-1.95
			C263.84,7.82,263.04,7.1,261.45,7.1z"/>
		<path class="st0" d="M273.03,4.99h2.59v11.2h-2.59V4.99z"/>
		<path class="st0" d="M288.56,4.99v11.2h-2.13l-5.59-6.8v6.8h-2.56V4.99h2.15l5.57,6.8v-6.8H288.56z"/>
		<path class="st0" d="M290.33,15.09l0.88-1.95c0.94,0.69,2.35,1.17,3.7,1.17c1.54,0,2.16-0.51,2.16-1.2c0-2.1-6.51-0.66-6.51-4.82
			c0-1.9,1.54-3.49,4.72-3.49c1.41,0,2.85,0.34,3.89,0.99l-0.8,1.97c-1.04-0.59-2.11-0.88-3.11-0.88c-1.54,0-2.13,0.58-2.13,1.28
			c0,2.06,6.51,0.64,6.51,4.75c0,1.87-1.55,3.47-4.75,3.47C293.11,16.39,291.32,15.86,290.33,15.09z"/>
		<path class="st0" d="M303.58,7.1h-3.59V4.99h9.76V7.1h-3.59v9.09h-2.59V7.1z"/>
		<path class="st0" d="M311.14,4.99h2.59v11.2h-2.59V4.99z"/>
		<path class="st0" d="M318.71,7.1h-3.59V4.99h9.76V7.1h-3.59v9.09h-2.59V7.1z"/>
		<path class="st0" d="M325.99,11.26V4.99h2.59v6.18c0,2.13,0.93,3.01,2.5,3.01c1.58,0,2.5-0.88,2.5-3.01V4.99h2.56v6.27
			c0,3.3-1.89,5.12-5.07,5.12C327.88,16.39,325.99,14.56,325.99,11.26z"/>
		<path class="st0" d="M340.83,7.1h-3.59V4.99H347V7.1h-3.59v9.09h-2.59V7.1z"/>
		<path class="st0" d="M357.07,14.11v2.08h-8.68V4.99h8.47v2.08h-5.89V9.5h5.2v2.02h-5.2v2.59H357.07z"/>
	</g>
</g>
<g>
	<g>
		<path class="st1" d="M117.67,34.18c0,2.42-1.92,3.82-5.6,3.82h-7.24V24h6.84c3.5,0,5.3,1.46,5.3,3.64c0,1.4-0.72,2.48-1.86,3.08
			C116.67,31.22,117.67,32.42,117.67,34.18z M108.05,26.44v3.3h3.22c1.58,0,2.44-0.56,2.44-1.66c0-1.1-0.86-1.64-2.44-1.64H108.05z
			 M114.41,33.84c0-1.18-0.9-1.74-2.58-1.74h-3.78v3.46h3.78C113.51,35.56,114.41,35.04,114.41,33.84z"/>
		<path class="st1" d="M119.53,24c0-0.98,0.78-1.74,1.94-1.74c1.16,0,1.94,0.72,1.94,1.68c0,1.04-0.78,1.8-1.94,1.8
			C120.31,25.74,119.53,24.98,119.53,24z M119.91,27.24h3.12V38h-3.12V27.24z"/>
		<path class="st1" d="M125.13,32.62c0-3.24,2.5-5.54,5.92-5.54c3.42,0,5.9,2.3,5.9,5.54c0,3.24-2.48,5.54-5.9,5.54
			C127.63,38.16,125.13,35.86,125.13,32.62z M133.79,32.62c0-1.86-1.18-2.98-2.74-2.98c-1.56,0-2.76,1.12-2.76,2.98
			s1.2,2.98,2.76,2.98C132.61,35.6,133.79,34.48,133.79,32.62z"/>
		<path class="st1" d="M157.21,31.84V38h-3.12v-5.68c0-1.74-0.78-2.54-2.04-2.54c-1.4,0-2.38,0.9-2.38,2.82V38h-3.12v-5.68
			c0-1.74-0.74-2.54-2.04-2.54c-1.38,0-2.36,0.9-2.36,2.82V38h-3.12V27.24h2.98v1.24c0.8-0.92,2-1.4,3.38-1.4
			c1.5,0,2.78,0.58,3.54,1.76c0.86-1.1,2.26-1.76,3.88-1.76C155.37,27.08,157.21,28.56,157.21,31.84z"/>
		<path class="st1" d="M170.61,33.5h-8.14c0.3,1.34,1.44,2.16,3.08,2.16c1.14,0,1.96-0.34,2.7-1.04l1.66,1.8
			c-1,1.14-2.5,1.74-4.44,1.74c-3.72,0-6.14-2.34-6.14-5.54c0-3.22,2.46-5.54,5.74-5.54c3.16,0,5.6,2.12,5.6,5.58
			C170.67,32.9,170.63,33.24,170.61,33.5z M162.43,31.68h5.3c-0.22-1.36-1.24-2.24-2.64-2.24C163.67,29.44,162.65,30.3,162.43,31.68
			z"/>
		<path class="st1" d="M183.71,23.16V38h-2.98v-1.24c-0.78,0.94-1.92,1.4-3.36,1.4c-3.04,0-5.38-2.16-5.38-5.54s2.34-5.54,5.38-5.54
			c1.32,0,2.44,0.42,3.22,1.3v-5.22H183.71z M180.65,32.62c0-1.86-1.2-2.98-2.74-2.98c-1.56,0-2.76,1.12-2.76,2.98
			s1.2,2.98,2.76,2.98C179.45,35.6,180.65,34.48,180.65,32.62z"/>
		<path class="st1" d="M186.21,24c0-0.98,0.78-1.74,1.94-1.74c1.16,0,1.94,0.72,1.94,1.68c0,1.04-0.78,1.8-1.94,1.8
			C186.99,25.74,186.21,24.98,186.21,24z M186.59,27.24h3.12V38h-3.12V27.24z"/>
		<path class="st1" d="M191.81,32.62c0-3.24,2.5-5.54,6-5.54c2.26,0,4.04,0.98,4.82,2.74l-2.42,1.3c-0.58-1.02-1.44-1.48-2.42-1.48
			c-1.58,0-2.82,1.1-2.82,2.98c0,1.88,1.24,2.98,2.82,2.98c0.98,0,1.84-0.44,2.42-1.48l2.42,1.32c-0.78,1.72-2.56,2.72-4.82,2.72
			C194.31,38.16,191.81,35.86,191.81,32.62z"/>
		<path class="st1" d="M213.95,31.86V38h-2.92v-1.34c-0.58,0.98-1.7,1.5-3.28,1.5c-2.52,0-4.02-1.4-4.02-3.26
			c0-1.9,1.34-3.22,4.62-3.22h2.48c0-1.34-0.8-2.12-2.48-2.12c-1.14,0-2.32,0.38-3.1,1l-1.12-2.18c1.18-0.84,2.92-1.3,4.64-1.3
			C212.05,27.08,213.95,28.6,213.95,31.86z M210.83,34.6v-1.1h-2.14c-1.46,0-1.92,0.54-1.92,1.26c0,0.78,0.66,1.3,1.76,1.3
			C209.57,36.06,210.47,35.58,210.83,34.6z"/>
		<path class="st1" d="M216.77,23.16h3.12V38h-3.12V23.16z"/>
		<path class="st1" d="M237.59,38l-2.7-3.9h-0.16h-2.82V38h-3.24V24h6.06c3.74,0,6.08,1.94,6.08,5.08c0,2.1-1.06,3.64-2.88,4.42
			l3.14,4.5H237.59z M234.55,26.64h-2.64v4.88h2.64c1.98,0,2.98-0.92,2.98-2.44C237.53,27.54,236.53,26.64,234.55,26.64z"/>
		<path class="st1" d="M253.63,33.5h-8.14c0.3,1.34,1.44,2.16,3.08,2.16c1.14,0,1.96-0.34,2.7-1.04l1.66,1.8
			c-1,1.14-2.5,1.74-4.44,1.74c-3.72,0-6.14-2.34-6.14-5.54c0-3.22,2.46-5.54,5.74-5.54c3.16,0,5.6,2.12,5.6,5.58
			C253.69,32.9,253.65,33.24,253.63,33.5z M245.45,31.68h5.3c-0.22-1.36-1.24-2.24-2.64-2.24C246.69,29.44,245.67,30.3,245.45,31.68
			z"/>
		<path class="st1" d="M254.73,37l1.04-2.24c0.96,0.62,2.42,1.04,3.74,1.04c1.44,0,1.98-0.38,1.98-0.98c0-1.76-6.5,0.04-6.5-4.26
			c0-2.04,1.84-3.48,4.98-3.48c1.48,0,3.12,0.34,4.14,0.94l-1.04,2.22c-1.06-0.6-2.12-0.8-3.1-0.8c-1.4,0-2,0.44-2,1
			c0,1.84,6.5,0.06,6.5,4.3c0,2-1.86,3.42-5.08,3.42C257.57,38.16,255.73,37.66,254.73,37z"/>
		<path class="st1" d="M276.87,33.5h-8.14c0.3,1.34,1.44,2.16,3.08,2.16c1.14,0,1.96-0.34,2.7-1.04l1.66,1.8
			c-1,1.14-2.5,1.74-4.44,1.74c-3.72,0-6.14-2.34-6.14-5.54c0-3.22,2.46-5.54,5.74-5.54c3.16,0,5.6,2.12,5.6,5.58
			C276.93,32.9,276.89,33.24,276.87,33.5z M268.69,31.68h5.3c-0.22-1.36-1.24-2.24-2.64-2.24C269.93,29.44,268.91,30.3,268.69,31.68
			z"/>
		<path class="st1" d="M288.23,31.86V38h-2.92v-1.34c-0.58,0.98-1.7,1.5-3.28,1.5c-2.52,0-4.02-1.4-4.02-3.26
			c0-1.9,1.34-3.22,4.62-3.22h2.48c0-1.34-0.8-2.12-2.48-2.12c-1.14,0-2.32,0.38-3.1,1l-1.12-2.18c1.18-0.84,2.92-1.3,4.64-1.3
			C286.33,27.08,288.23,28.6,288.23,31.86z M285.11,34.6v-1.1h-2.14c-1.46,0-1.92,0.54-1.92,1.26c0,0.78,0.66,1.3,1.76,1.3
			C283.85,36.06,284.75,35.58,285.11,34.6z"/>
		<path class="st1" d="M297.73,27.08v2.88c-0.26-0.02-0.46-0.04-0.7-0.04c-1.72,0-2.86,0.94-2.86,3V38h-3.12V27.24h2.98v1.42
			C294.79,27.62,296.07,27.08,297.73,27.08z"/>
		<path class="st1" d="M298.69,32.62c0-3.24,2.5-5.54,6-5.54c2.26,0,4.04,0.98,4.82,2.74l-2.42,1.3c-0.58-1.02-1.44-1.48-2.42-1.48
			c-1.58,0-2.82,1.1-2.82,2.98c0,1.88,1.24,2.98,2.82,2.98c0.98,0,1.84-0.44,2.42-1.48l2.42,1.32c-0.78,1.72-2.56,2.72-4.82,2.72
			C301.19,38.16,298.69,35.86,298.69,32.62z"/>
		<path class="st1" d="M322.23,31.84V38h-3.12v-5.68c0-1.74-0.8-2.54-2.18-2.54c-1.5,0-2.58,0.92-2.58,2.9V38h-3.12V23.16h3.12v5.2
			c0.84-0.84,2.04-1.28,3.42-1.28C320.31,27.08,322.23,28.56,322.23,31.84z"/>
		<path class="st1" d="M330.93,24h3.24v14h-3.24V24z"/>
		<path class="st1" d="M348.27,31.84V38h-3.12v-5.68c0-1.74-0.8-2.54-2.18-2.54c-1.5,0-2.58,0.92-2.58,2.9V38h-3.12V27.24h2.98v1.26
			c0.84-0.92,2.1-1.42,3.56-1.42C346.35,27.08,348.27,28.56,348.27,31.84z"/>
		<path class="st1" d="M358.03,37.48c-0.64,0.46-1.58,0.68-2.54,0.68c-2.54,0-4.02-1.3-4.02-3.86v-4.42h-1.66v-2.4h1.66v-2.62h3.12
			v2.62h2.68v2.4h-2.68v4.38c0,0.92,0.5,1.42,1.34,1.42c0.46,0,0.92-0.14,1.26-0.4L358.03,37.48z"/>
		<path class="st1" d="M369.93,33.5h-8.14c0.3,1.34,1.44,2.16,3.08,2.16c1.14,0,1.96-0.34,2.7-1.04l1.66,1.8
			c-1,1.14-2.5,1.74-4.44,1.74c-3.72,0-6.14-2.34-6.14-5.54c0-3.22,2.46-5.54,5.74-5.54c3.16,0,5.6,2.12,5.6,5.58
			C369.99,32.9,369.95,33.24,369.93,33.5z M361.75,31.68h5.3c-0.22-1.36-1.24-2.24-2.64-2.24C362.99,29.44,361.97,30.3,361.75,31.68
			z"/>
		<path class="st1" d="M383.17,27.24v8.96c0,4-2.16,5.84-6.04,5.84c-2.04,0-4.02-0.5-5.28-1.48l1.24-2.24
			c0.92,0.74,2.42,1.22,3.8,1.22c2.2,0,3.16-1,3.16-2.94v-0.46c-0.82,0.9-2,1.34-3.4,1.34c-2.98,0-5.38-2.06-5.38-5.2
			c0-3.14,2.4-5.2,5.38-5.2c1.5,0,2.74,0.5,3.56,1.54v-1.38H383.17z M380.09,32.28c0-1.58-1.18-2.64-2.82-2.64s-2.84,1.06-2.84,2.64
			c0,1.58,1.2,2.64,2.84,2.64S380.09,33.86,380.09,32.28z"/>
		<path class="st1" d="M392.75,27.08v2.88c-0.26-0.02-0.46-0.04-0.7-0.04c-1.72,0-2.86,0.94-2.86,3V38h-3.12V27.24h2.98v1.42
			C389.81,27.62,391.09,27.08,392.75,27.08z"/>
		<path class="st1" d="M404.07,31.86V38h-2.92v-1.34c-0.58,0.98-1.7,1.5-3.28,1.5c-2.52,0-4.02-1.4-4.02-3.26
			c0-1.9,1.34-3.22,4.62-3.22h2.48c0-1.34-0.8-2.12-2.48-2.12c-1.14,0-2.32,0.38-3.1,1l-1.12-2.18c1.18-0.84,2.92-1.3,4.64-1.3
			C402.17,27.08,404.07,28.6,404.07,31.86z M400.95,34.6v-1.1h-2.14c-1.46,0-1.92,0.54-1.92,1.26c0,0.78,0.66,1.3,1.76,1.3
			C399.69,36.06,400.59,35.58,400.95,34.6z"/>
		<path class="st1" d="M413.83,37.48c-0.64,0.46-1.58,0.68-2.54,0.68c-2.54,0-4.02-1.3-4.02-3.86v-4.42h-1.66v-2.4h1.66v-2.62h3.12
			v2.62h2.68v2.4h-2.68v4.38c0,0.92,0.5,1.42,1.34,1.42c0.46,0,0.92-0.14,1.26-0.4L413.83,37.48z"/>
		<path class="st1" d="M425.73,33.5h-8.14c0.3,1.34,1.44,2.16,3.08,2.16c1.14,0,1.96-0.34,2.7-1.04l1.66,1.8
			c-1,1.14-2.5,1.74-4.44,1.74c-3.72,0-6.14-2.34-6.14-5.54c0-3.22,2.46-5.54,5.74-5.54c3.16,0,5.6,2.12,5.6,5.58
			C425.79,32.9,425.75,33.24,425.73,33.5z M417.55,31.68h5.3c-0.22-1.36-1.24-2.24-2.64-2.24C418.79,29.44,417.77,30.3,417.55,31.68
			z"/>
		<path class="st1" d="M438.83,23.16V38h-2.98v-1.24c-0.78,0.94-1.92,1.4-3.36,1.4c-3.04,0-5.38-2.16-5.38-5.54s2.34-5.54,5.38-5.54
			c1.32,0,2.44,0.42,3.22,1.3v-5.22H438.83z M435.77,32.62c0-1.86-1.2-2.98-2.74-2.98c-1.56,0-2.76,1.12-2.76,2.98
			s1.2,2.98,2.76,2.98C434.57,35.6,435.77,34.48,435.77,32.62z"/>
		<path class="st1" d="M104.83,45h6.36c4.58,0,7.72,2.76,7.72,7c0,4.24-3.14,7-7.72,7h-6.36V45z M111.03,56.34
			c2.78,0,4.6-1.66,4.6-4.34c0-2.68-1.82-4.34-4.6-4.34h-2.96v8.68H111.03z"/>
		<path class="st1" d="M120.33,53.62c0-3.24,2.5-5.54,5.92-5.54c3.42,0,5.9,2.3,5.9,5.54c0,3.24-2.48,5.54-5.9,5.54
			C122.83,59.16,120.33,56.86,120.33,53.62z M128.99,53.62c0-1.86-1.18-2.98-2.74-2.98c-1.56,0-2.76,1.12-2.76,2.98
			s1.2,2.98,2.76,2.98C127.81,56.6,128.99,55.48,128.99,53.62z"/>
		<path class="st1" d="M152.41,52.84V59h-3.12v-5.68c0-1.74-0.78-2.54-2.04-2.54c-1.4,0-2.38,0.9-2.38,2.82V59h-3.12v-5.68
			c0-1.74-0.74-2.54-2.04-2.54c-1.38,0-2.36,0.9-2.36,2.82V59h-3.12V48.24h2.98v1.24c0.8-0.92,2-1.4,3.38-1.4
			c1.5,0,2.78,0.58,3.54,1.76c0.86-1.1,2.26-1.76,3.88-1.76C150.57,48.08,152.41,49.56,152.41,52.84z"/>
		<path class="st1" d="M164.73,52.86V59h-2.92v-1.34c-0.58,0.98-1.7,1.5-3.28,1.5c-2.52,0-4.02-1.4-4.02-3.26
			c0-1.9,1.34-3.22,4.62-3.22h2.48c0-1.34-0.8-2.12-2.48-2.12c-1.14,0-2.32,0.38-3.1,1l-1.12-2.18c1.18-0.84,2.92-1.3,4.64-1.3
			C162.83,48.08,164.73,49.6,164.73,52.86z M161.61,55.6v-1.1h-2.14c-1.46,0-1.92,0.54-1.92,1.26c0,0.78,0.66,1.3,1.76,1.3
			C160.35,57.06,161.25,56.58,161.61,55.6z"/>
		<path class="st1" d="M167.17,45c0-0.98,0.78-1.74,1.94-1.74c1.16,0,1.94,0.72,1.94,1.68c0,1.04-0.78,1.8-1.94,1.8
			C167.95,46.74,167.17,45.98,167.17,45z M167.55,48.24h3.12V59h-3.12V48.24z"/>
		<path class="st1" d="M184.57,52.84V59h-3.12v-5.68c0-1.74-0.8-2.54-2.18-2.54c-1.5,0-2.58,0.92-2.58,2.9V59h-3.12V48.24h2.98v1.26
			c0.84-0.92,2.1-1.42,3.56-1.42C182.65,48.08,184.57,49.56,184.57,52.84z"/>
		<path class="st1" d="M202.73,51.78h2.96v5.68c-1.54,1.16-3.66,1.78-5.66,1.78c-4.4,0-7.64-3.02-7.64-7.24
			c0-4.22,3.24-7.24,7.7-7.24c2.46,0,4.5,0.84,5.86,2.42l-2.08,1.92c-1.02-1.08-2.2-1.58-3.62-1.58c-2.72,0-4.58,1.82-4.58,4.48
			c0,2.62,1.86,4.48,4.54,4.48c0.88,0,1.7-0.16,2.52-0.6V51.78z"/>
		<path class="st1" d="M215.15,48.08v2.88c-0.26-0.02-0.46-0.04-0.7-0.04c-1.72,0-2.86,0.94-2.86,3V59h-3.12V48.24h2.98v1.42
			C212.21,48.62,213.49,48.08,215.15,48.08z"/>
		<path class="st1" d="M216.11,53.62c0-3.24,2.5-5.54,5.92-5.54c3.42,0,5.9,2.3,5.9,5.54c0,3.24-2.48,5.54-5.9,5.54
			C218.61,59.16,216.11,56.86,216.11,53.62z M224.77,53.62c0-1.86-1.18-2.98-2.74-2.98c-1.56,0-2.76,1.12-2.76,2.98
			s1.2,2.98,2.76,2.98C223.59,56.6,224.77,55.48,224.77,53.62z"/>
		<path class="st1" d="M240.85,48.24V59h-2.96v-1.28c-0.82,0.94-2.02,1.44-3.34,1.44c-2.7,0-4.6-1.52-4.6-4.84v-6.08h3.12v5.62
			c0,1.8,0.8,2.6,2.18,2.6c1.44,0,2.48-0.92,2.48-2.9v-5.32H240.85z"/>
		<path class="st1" d="M255.47,53.62c0,3.38-2.34,5.54-5.36,5.54c-1.34,0-2.44-0.42-3.24-1.3v5.02h-3.12V48.24h2.98v1.24
			c0.78-0.94,1.94-1.4,3.38-1.4C253.13,48.08,255.47,50.24,255.47,53.62z M252.31,53.62c0-1.86-1.18-2.98-2.74-2.98
			c-1.56,0-2.74,1.12-2.74,2.98s1.18,2.98,2.74,2.98C251.13,56.6,252.31,55.48,252.31,53.62z"/>
		<path class="st1" d="M263.23,53.52c0-3.68,0.9-6.98,2.5-9.36h2.98c-1.7,3-2.42,6-2.42,9.36c0,3.36,0.72,6.36,2.42,9.36h-2.98
			C264.13,60.46,263.23,57.2,263.23,53.52z"/>
		<path class="st1" d="M283.41,55.18c0,2.42-1.92,3.82-5.6,3.82h-7.24V45h6.84c3.5,0,5.3,1.46,5.3,3.64c0,1.4-0.72,2.48-1.86,3.08
			C282.41,52.22,283.41,53.42,283.41,55.18z M273.79,47.44v3.3h3.22c1.58,0,2.44-0.56,2.44-1.66c0-1.1-0.86-1.64-2.44-1.64H273.79z
			 M280.15,54.84c0-1.18-0.9-1.74-2.58-1.74h-3.78v3.46h3.78C279.25,56.56,280.15,56.04,280.15,54.84z"/>
		<path class="st1" d="M294.79,59l-2.7-3.9h-0.16h-2.82V59h-3.24V45h6.06c3.74,0,6.08,1.94,6.08,5.08c0,2.1-1.06,3.64-2.88,4.42
			l3.14,4.5H294.79z M291.75,47.64h-2.64v4.88h2.64c1.98,0,2.98-0.92,2.98-2.44C294.73,48.54,293.73,47.64,291.75,47.64z"/>
		<path class="st1" d="M300.57,45h3.24v14h-3.24V45z"/>
		<path class="st1" d="M307.13,45h6.36c4.58,0,7.72,2.76,7.72,7c0,4.24-3.14,7-7.72,7h-6.36V45z M313.33,56.34
			c2.78,0,4.6-1.66,4.6-4.34c0-2.68-1.82-4.34-4.6-4.34h-2.96v8.68H313.33z"/>
		<path class="st1" d="M333.11,51.78h2.96v5.68c-1.54,1.16-3.66,1.78-5.66,1.78c-4.4,0-7.64-3.02-7.64-7.24
			c0-4.22,3.24-7.24,7.7-7.24c2.46,0,4.5,0.84,5.86,2.42l-2.08,1.92c-1.02-1.08-2.2-1.58-3.62-1.58c-2.72,0-4.58,1.82-4.58,4.48
			c0,2.62,1.86,4.48,4.54,4.48c0.88,0,1.7-0.16,2.52-0.6V51.78z"/>
		<path class="st1" d="M337.61,62.88c1.72-3,2.44-6,2.44-9.36c0-3.36-0.72-6.36-2.44-9.36h2.98c1.64,2.38,2.52,5.68,2.52,9.36
			s-0.88,6.94-2.52,9.36H337.61z"/>
	</g>
</g>
<g>
	<g>
		<path class="st1" d="M80,32L65,5H10.77C7.58,5,5,7.59,5,10.79v42.43C5,56.41,7.58,59,10.77,59H65L80,32z"/>
		<path class="st0" d="M78.5,7.81C77.45,6.07,75.54,5,73.49,5H69l15.2,27L69,59h4.49c2.06,0,3.96-1.07,5.02-2.81L92,32L78.5,7.81z"
			/>
	</g>
	<g>
		<rect x="37" y="20" class="st2" width="4" height="24"/>
		<polygon class="st2" points="29,20 29,37.6 18,20 14,20 14,44 18,44 18,26.4 29,44 33,44 33,20 		"/>
		<polygon class="st2" points="60,20 60,30 49,30 49,20 45,20 45,44 49,44 49,34 60,34 60,44 64,44 64,20 		"/>
	</g>
</g>
<g>
</g>
<g>
</g>
<g>
</g>
<g>
</g>
<g>
</g>
<g>
</g>
</svg>
